<?xml version="1.0" encoding="iso-8859-1"?>
<!-- Uploaded to: SVG Repo, www.svgrepo.com, Generator: SVG Repo Mixer Tools -->
<svg height="800px" width="800px" version="1.1" id="Layer_1" xmlns="http://www.w3.org/2000/svg" xmlns:xlink="http://www.w3.org/1999/xlink" 
	 viewBox="0 0 512 512" xml:space="preserve">
<path style="fill:#665247;" d="M495.304,512h-244.87c-9.217,0-16.696-7.473-16.696-16.696s7.479-16.696,16.696-16.696h244.87
	c9.217,0,16.696,7.473,16.696,16.696S504.521,512,495.304,512z"/>
<path style="fill:#EDF0F2;" d="M256,512C114.837,512,0,397.157,0,256S114.837,0,256,0s256,114.843,256,256S397.163,512,256,512z"/>
<path style="fill:#DAE1E6;" d="M512,256C512,114.843,397.163,0,256,0v512C397.163,512,512,397.157,512,256z"/>
<path style="fill:#736056;" d="M110.467,229.81c-23.913-13.804-32.141-44.495-18.337-68.413
	c13.794-23.918,44.489-32.136,68.424-18.342c23.913,13.821,32.13,44.511,18.326,68.419l0,0
	C165.074,235.42,134.41,243.641,110.467,229.81z"/>
<path style="fill:#665247;" d="M351.446,368.946c-23.913-13.821-32.141-44.516-18.326-68.424
	c13.792-23.912,44.423-32.176,68.413-18.332c23.913,13.804,32.141,44.495,18.337,68.413v0.006
	C406.066,374.501,375.398,382.758,351.446,368.946z"/>
<path style="fill:#736056;" d="M92.13,350.609c-13.804-23.924-5.576-54.614,18.337-68.419c23.938-13.827,54.603-5.618,68.413,18.337
	c13.804,23.907,5.587,54.598-18.326,68.413C136.677,382.728,105.964,374.555,92.13,350.609z"/>
<path style="fill:#665247;" d="M333.119,211.473c-13.815-23.903-5.587-54.598,18.326-68.413
	c23.891-13.798,54.609-5.582,68.424,18.332v0.006c13.804,23.918,5.576,54.609-18.337,68.413
	C377.617,243.626,346.939,235.443,333.119,211.473z"/>
<path style="fill:#736056;" d="M256,166.957c-27.619,0-50.087-22.468-50.087-50.087S228.381,66.783,256,66.783
	s50.087,22.468,50.087,50.087S283.619,166.957,256,166.957z"/>
<path style="fill:#665247;" d="M306.087,116.87c0-27.619-22.468-50.087-50.087-50.087v100.174
	C283.619,166.957,306.087,144.489,306.087,116.87z"/>
<path style="fill:#736056;" d="M256,445.217c-27.619,0-50.087-22.468-50.087-50.087c0-27.619,22.468-50.087,50.087-50.087
	s50.087,22.468,50.087,50.087C306.087,422.749,283.619,445.217,256,445.217z"/>
<path style="fill:#665247;" d="M306.087,395.13c0-27.619-22.468-50.087-50.087-50.087v100.174
	C283.619,445.217,306.087,422.749,306.087,395.13z"/>
</svg>